<svg width="180" height="31" viewBox="0 0 650 104" fill="none" xmlns="http://www.w3.org/2000/svg">
            <g id="bird" fill="#4A9CA6">
              <path d="M77.8832 26.026C78.3666 19.2146 74.3957 12.8791 68.09 10.4029C61.7842 7.91926 54.6085 9.8675 50.3848 15.1991L47.3583 14.1507L44.2724 13.184L41.1492 12.3065C45.4175 4.96715 53.1138 0.334499 61.5463 0.0147496C69.9787 -0.297564 78.0097 3.75508 82.8059 10.7598L92.4281 11.4365L77.8832 26.026Z"></path>
              <path d="M84.9772 51.9928L84.9103 54.0972L84.7616 56.2016L84.5236 58.2837L84.1964 60.3435L83.78 62.4032L83.2818 64.4407L82.6944 66.4559L82.0177 68.4487L81.2592 70.397L80.4338 72.3229L79.4969 74.1819L78.5004 76.0409L77.4371 77.8404L76.2845 79.573L75.065 81.2833L73.7637 82.9267L72.4178 84.5031L70.9826 86.035L69.4805 87.4998L67.9413 88.9053L66.3351 90.2214L64.662 91.493L62.9442 92.6753L61.1819 93.7907L59.3601 94.8169L57.5159 95.7836L55.6272 96.661L53.6938 97.4493L51.7381 98.1483L49.7602 98.7803L47.7376 99.3083L45.715 99.7693L43.6477 100.119L41.6028 100.401L39.5207 100.58L37.4387 100.691H35.3714L33.2893 100.602L31.2073 100.424L29.14 100.163L27.0951 99.8139L25.0502 99.3752L23.0499 98.8472L21.0496 98.2524L19.7929 98.9513L18.4693 99.5685L17.1457 100.141L15.7775 100.624L14.387 101.019L12.9741 101.323L11.539 101.561L10.1038 101.718L8.64633 101.784L7.18887 101.762L5.75372 101.673L4.31856 101.472L2.88341 101.212L18.0529 85.9829C33.044 94.0287 51.4779 91.2848 63.5243 79.2087C75.5632 67.1325 78.3963 48.5499 70.5067 33.3878L77.8684 26.0038L78.9169 27.8331L79.8761 29.6921L80.7684 31.5734L81.5715 33.5217L82.2854 35.4922L82.9397 37.4851L83.4826 39.5002L83.9585 41.5377L84.3303 43.6198L84.6128 45.7019L84.8285 47.784L84.94 49.8661L84.9623 51.9705L84.9772 51.9928Z"></path>
              <path fill-rule="evenodd" clip-rule="evenodd" d="M36.3009 82.7781C53.4038 82.7781 67.2794 68.7909 67.2794 51.5318C67.2794 50.4685 67.2274 49.4126 67.1233 48.3715C66.7887 45.003 65.9187 41.7832 64.6025 38.8162L37.7733 65.5859L21.5404 49.3531C20.0829 47.8956 20.0829 45.531 21.5404 44.0735C22.9979 42.616 25.3625 42.616 26.82 44.0735L37.7807 55.0342L60.6539 32.213C57.1293 27.6993 52.3999 24.1895 46.9568 22.1744C46.927 22.1595 46.9047 22.1521 46.875 22.1446C46.4585 21.9959 46.0347 21.8472 45.6034 21.7059C45.5737 21.6985 45.5514 21.691 45.5216 21.6836C35.3565 18.2779 24.4776 16.4337 13.1823 16.4337C9.48659 16.4337 5.84293 16.6345 2.25132 17.0212C0.912839 20.8284 0.191544 24.9183 0.191544 29.1865C0.191544 36.169 2.13235 42.683 5.50087 48.2302C5.3819 49.3159 5.32984 50.4164 5.32984 51.5318C5.32984 68.7909 19.2055 82.7781 36.3084 82.7781H36.3009Z"></path>
            </g>
            <g id="logo-text" fill="#444B5A">
              <path d="M136.546 86.2805C132.464 86.2805 128.835 85.5518 125.764 84.124C122.686 82.6889 120.247 80.6142 118.521 77.9596C116.796 75.3049 115.889 72.1 115.837 68.4415V68.3448H124.939V68.4415C124.991 71.3713 126.024 73.8921 128.017 75.937C130.003 77.9745 132.843 79.0081 136.465 79.0081C139.662 79.0081 142.198 78.2273 143.997 76.6806C145.797 75.1413 146.711 73.1485 146.711 70.7466C146.711 68.8133 146.273 67.2294 145.418 66.0322C144.555 64.8275 143.365 63.8237 141.871 63.0355C140.368 62.2472 138.621 61.5259 136.673 60.8939C134.643 60.2395 132.553 59.5405 130.464 58.8267C126.173 57.3989 122.909 55.5102 120.76 53.2348C118.603 50.9445 117.51 47.9031 117.51 44.1777C117.458 41.0471 118.194 38.2735 119.711 35.9311C121.228 33.5962 123.377 31.7446 126.114 30.4433C128.843 29.142 132.085 28.4876 135.743 28.4876C139.402 28.4876 142.562 29.1569 145.291 30.4879C148.028 31.819 150.191 33.6854 151.738 36.0501C153.277 38.4147 154.088 41.2033 154.14 44.3338V44.4305H145.038V44.3338C145.038 42.9284 144.667 41.5676 143.938 40.2812C143.209 39.0022 142.116 37.9314 140.711 37.0911C139.298 36.2583 137.55 35.8344 135.505 35.8344H135.215C132.724 35.8344 130.635 36.4962 128.999 37.805C127.311 39.1583 126.448 41.062 126.448 43.4564C126.448 45.5905 127.08 47.2562 128.33 48.4013C129.586 49.5539 131.341 50.528 133.55 51.2865C135.78 52.0524 138.324 52.9448 141.186 53.9486C143.938 54.8484 146.436 55.9489 148.6 57.2205C150.779 58.492 152.541 60.1949 153.843 62.2621C155.144 64.3368 155.806 67.0063 155.806 70.1889C155.806 73.0072 155.077 75.6618 153.642 78.0786C152.207 80.4953 150.028 82.4881 147.158 84.0051C144.295 85.5146 140.718 86.2805 136.531 86.2805H136.546Z"></path>
              <path d="M136.546 86.1836C132.464 86.1836 128.88 85.4698 125.809 84.0346C122.73 82.5995 120.328 80.562 118.611 77.9073C116.886 75.2526 116.001 72.0998 115.949 68.4412H124.857C124.909 71.4157 125.943 73.929 127.958 76.0037C129.973 78.0709 132.814 79.1045 136.472 79.1045C139.707 79.1045 142.242 78.3237 144.072 76.7547C145.901 75.1932 146.816 73.1854 146.816 70.7464C146.816 68.7833 146.377 67.192 145.499 65.9725C144.622 64.753 143.432 63.7417 141.923 62.946C140.413 62.1504 138.673 61.4365 136.71 60.797C134.747 60.1575 132.68 59.4734 130.501 58.7298C126.203 57.2946 122.983 55.4431 120.834 53.1602C118.685 50.8773 117.614 47.8806 117.614 44.17C117.562 41.0395 118.291 38.3104 119.8 35.9755C121.31 33.6406 123.437 31.8262 126.166 30.5249C128.895 29.2236 132.092 28.5767 135.751 28.5767C139.409 28.5767 142.525 29.2385 145.261 30.5695C147.99 31.8931 150.125 33.7373 151.664 36.1019C153.203 38.4591 153.999 41.2105 154.051 44.3336H145.142C145.142 42.8985 144.771 41.5377 144.027 40.2364C143.283 38.9351 142.198 37.8643 140.763 37.0166C139.327 36.1689 137.58 35.745 135.513 35.745C132.858 35.6929 130.672 36.3548 128.947 37.7379C127.222 39.121 126.359 41.0246 126.359 43.4636C126.359 45.6424 126.999 47.308 128.27 48.4755C129.542 49.6429 131.297 50.6096 133.52 51.383C135.751 52.1489 138.294 53.0412 141.157 54.0451C143.916 54.9448 146.384 56.0305 148.556 57.3095C150.727 58.5811 152.467 60.2542 153.768 62.3214C155.07 64.3886 155.717 67.0135 155.717 70.1961C155.717 73.007 155.003 75.617 153.567 78.0337C152.132 80.4504 149.991 82.4136 147.12 83.9231C144.258 85.4326 140.725 86.1911 136.539 86.1911L136.546 86.1836Z"></path>
              <path d="M176.359 86.2804C171.577 86.2804 167.77 84.7709 165.026 81.7964C162.29 78.822 160.906 74.3307 160.906 68.4413V45.6722H169.532V67.5713C169.532 75.1114 172.655 78.9336 178.827 78.9336C181.913 78.9336 184.486 77.8182 186.472 75.6245C188.464 73.4235 189.468 70.2334 189.468 66.1436V45.6796H198.094V85.336H190.428L189.81 78.6584C188.591 80.9636 186.821 82.8226 184.553 84.1685C182.188 85.5739 179.43 86.2878 176.351 86.2878L176.359 86.2804Z"></path>
              <path d="M176.359 86.1839C171.585 86.1839 167.829 84.6967 165.1 81.7297C162.371 78.7627 161.003 74.3309 161.003 68.4415V45.769H169.436V67.5715C169.436 75.2083 172.566 79.0304 178.827 79.0304C181.958 79.0304 184.531 77.915 186.546 75.6917C188.561 73.4608 189.572 70.2782 189.572 66.1438V45.7765H198.005V85.2395H190.524L189.885 78.3166C188.665 80.7556 186.873 82.6815 184.516 84.0869C182.159 85.4923 179.437 86.1988 176.359 86.1988V86.1839Z"></path>
              <path d="M206.735 85.3211V45.6647H214.476L215.167 52.9149C216.535 50.4387 218.439 48.4532 220.819 46.9883C223.287 45.4714 226.321 44.7055 229.816 44.7055H229.913V53.7328H227.511C225.206 53.7328 223.116 54.1195 221.302 54.878C219.495 55.6364 218.045 56.9378 216.974 58.7373C215.903 60.5442 215.353 63.0799 215.353 66.2848V85.3211H206.727H206.735Z"></path>
              <path d="M206.831 85.2244V45.7614H214.394L215.108 53.242C216.483 50.6469 218.409 48.5871 220.878 47.0776C223.347 45.568 226.329 44.8096 229.831 44.8096V53.6436H227.526C225.191 53.6436 223.109 54.0303 221.279 54.7962C219.45 55.5695 217.993 56.8634 216.907 58.6926C215.821 60.5219 215.279 63.0576 215.279 66.2923V85.2319H206.846L206.831 85.2244Z"></path>
              <path d="M248.042 85.3731L233.17 45.7167H242.205L253.121 76.9481L264.03 45.7167H272.99L258.2 85.3731H248.042Z"></path>
              <path d="M248.109 85.2766L233.311 45.8136H242.145L253.128 77.2383L264.111 45.8136H272.864L258.148 85.2766H248.124H248.109Z"></path>
              <path d="M294.316 86.2804C290.442 86.2804 286.962 85.4029 283.965 83.6777C280.969 81.9526 278.589 79.521 276.886 76.4425C275.191 73.3714 274.328 69.7426 274.328 65.6528C274.328 61.563 275.176 57.8375 276.849 54.7069C278.522 51.5764 280.887 49.1002 283.891 47.3453C286.888 45.5978 290.427 44.7055 294.406 44.7055C298.384 44.7055 301.693 45.5829 304.563 47.3081C307.426 49.0332 309.687 51.3607 311.278 54.2236C312.869 57.0865 313.68 60.2914 313.68 63.7417C313.68 64.2771 313.665 64.8497 313.643 65.4595C313.613 66.0692 313.576 66.7459 313.524 67.4895V67.5787H282.82C283.095 71.3042 284.352 74.1745 286.561 76.1227C288.784 78.0858 291.402 79.0823 294.331 79.0823C296.689 79.0823 298.689 78.5394 300.288 77.4686C301.879 76.3979 303.091 74.9255 303.872 73.0963L303.894 73.0368H312.52L312.483 73.1632C311.419 76.8812 309.278 80.0266 306.125 82.5177C302.965 85.0162 299.001 86.2804 294.331 86.2804H294.316ZM305.032 61.6596C304.853 58.6703 303.775 56.2685 301.805 54.5062C299.812 52.729 297.291 51.8292 294.309 51.8292C291.535 51.8292 289.037 52.662 286.888 54.3128C284.769 55.9413 283.445 58.4101 282.962 61.6596H305.024H305.032Z"></path>
              <path d="M294.316 86.1835C290.442 86.1835 287.007 85.3209 284.01 83.5958C281.013 81.8706 278.664 79.4688 276.968 76.3977C275.273 73.3192 274.425 69.7424 274.425 65.66C274.425 61.5777 275.258 57.8894 276.931 54.7588C278.604 51.6282 280.939 49.1892 283.936 47.4418C286.932 45.6943 290.42 44.8168 294.398 44.8168C298.376 44.8168 301.641 45.6794 304.504 47.4046C307.367 49.1297 309.597 51.42 311.189 54.2903C312.78 57.1532 313.576 60.3135 313.576 63.7564C313.576 64.2844 313.561 64.8569 313.539 65.4667C313.509 66.0765 313.472 66.7531 313.42 67.4967H282.709C282.976 71.3189 284.233 74.2189 286.486 76.2118C288.739 78.1972 291.349 79.1936 294.324 79.1936C296.711 79.1936 298.711 78.6508 300.332 77.5651C301.953 76.4795 303.158 75.0071 303.954 73.1481H312.386C311.323 76.8587 309.218 79.967 306.058 82.458C302.905 84.9491 298.986 86.1984 294.324 86.1984L294.316 86.1835ZM294.316 51.7323C291.506 51.7323 289.015 52.5652 286.836 54.2383C284.657 55.9114 283.333 58.4173 282.857 61.7561H305.136C304.98 58.6776 303.887 56.2386 301.871 54.4391C299.856 52.6395 297.335 51.7323 294.309 51.7323H294.316Z"></path>
              <path d="M323.168 102.826L332.642 82.0569H330.418L314.743 45.6649H324.105L336.137 74.7175L348.718 45.6649H357.842L332.3 102.826H323.168Z"></path>
              <path d="M323.324 102.729L332.79 81.9599H330.485L314.892 45.7612H324.038L336.129 74.9625L348.778 45.7612H357.686L332.225 102.729H323.317H323.324Z"></path>
              <path d="M380.217 86.4886C376.135 86.4886 372.506 85.7599 369.435 84.3322C366.357 82.897 363.918 80.8224 362.192 78.1677C360.467 75.513 359.56 72.3081 359.508 68.6496V68.5529H368.61V68.6496C368.662 71.5794 369.695 74.1002 371.688 76.1451C373.674 78.1826 376.514 79.2162 380.136 79.2162C383.333 79.2162 385.869 78.4354 387.668 76.8887C389.468 75.3495 390.382 73.3566 390.382 70.9548C390.382 69.0214 389.944 67.4375 389.089 66.2403C388.226 65.0357 387.029 64.0318 385.542 63.2436C384.04 62.4554 382.292 61.7341 380.344 61.102C378.314 60.4476 376.224 59.7487 374.135 59.0348C369.844 57.6071 366.58 55.7183 364.431 53.4429C362.274 51.1526 361.181 48.1113 361.181 44.3858C361.129 41.2552 361.865 38.4816 363.382 36.1392C364.899 33.8043 367.048 31.9602 369.785 30.6514C372.514 29.3501 375.756 28.6958 379.414 28.6958C383.073 28.6958 386.233 29.365 388.962 30.6961C391.699 32.0271 393.863 33.8936 395.409 36.2582C396.948 38.6229 397.759 41.4114 397.811 44.542V44.6386H388.709V44.542C388.709 43.1366 388.338 41.7758 387.609 40.4893C386.88 39.2103 385.787 38.1395 384.382 37.2993C382.969 36.4664 381.221 36.0426 379.176 36.0426H378.886C376.395 36.0426 374.306 36.7044 372.67 38.0131C370.974 39.3665 370.119 41.2701 370.119 43.6645C370.119 45.7987 370.751 47.4643 372.001 48.6095C373.257 49.7621 375.012 50.7362 377.221 51.4947C379.452 52.2606 381.995 53.1529 384.857 54.1568C387.609 55.0565 390.107 56.157 392.271 57.4286C394.45 58.7002 396.212 60.403 397.514 62.4702C398.815 64.5449 399.477 67.2144 399.477 70.3971C399.477 73.2153 398.748 75.87 397.313 78.2867C395.878 80.7034 393.699 82.6963 390.829 84.2132C387.966 85.7227 384.389 86.4886 380.203 86.4886H380.217Z"></path>
              <path d="M380.217 86.3918C376.135 86.3918 372.551 85.6779 369.48 84.2428C366.401 82.8076 364 80.7701 362.282 78.1155C360.557 75.4608 359.672 72.3079 359.62 68.6494H368.528C368.58 71.6238 369.614 74.1372 371.629 76.2118C373.644 78.2791 376.485 79.3127 380.143 79.3127C383.378 79.3127 385.913 78.5319 387.743 76.9629C389.572 75.4013 390.487 73.3936 390.487 70.9546C390.487 68.9915 390.048 67.4001 389.17 66.1806C388.293 64.9611 387.103 63.9498 385.586 63.1542C384.069 62.3585 382.337 61.6447 380.374 61.0052C378.411 60.3657 376.343 59.6815 374.165 58.9379C369.867 57.5028 366.647 55.6512 364.498 53.3683C362.349 51.0855 361.278 48.0888 361.278 44.3782C361.226 41.2476 361.955 38.5186 363.464 36.1837C364.974 33.8488 367.1 32.0344 369.829 30.7331C372.558 29.4318 375.756 28.7848 379.414 28.7848C383.073 28.7848 386.189 29.4466 388.925 30.7777C391.654 32.1013 393.788 33.9454 395.328 36.3101C396.867 38.6673 397.662 41.4186 397.715 44.5418H388.806C388.806 43.1066 388.434 41.7458 387.691 40.4445C386.947 39.1432 385.861 38.0724 384.426 37.2247C382.991 36.377 381.244 35.9532 379.176 35.9532C376.522 35.9011 374.336 36.5629 372.61 37.946C370.885 39.3291 370.023 41.2327 370.023 43.6718C370.023 45.8505 370.662 47.5162 371.934 48.6837C373.205 49.8511 374.96 50.8178 377.184 51.5911C379.414 52.357 381.958 53.2494 384.82 54.2532C387.579 55.153 390.048 56.2387 392.219 57.5177C394.391 58.7892 396.131 60.4623 397.432 62.5295C398.733 64.5968 399.38 67.2217 399.38 70.4043C399.38 73.2151 398.666 75.8252 397.231 78.2419C395.796 80.6586 393.647 82.6217 390.784 84.1312C387.921 85.6407 384.389 86.3992 380.203 86.3992L380.217 86.3918Z"></path>
              <path d="M405.731 103.034V45.8729H413.472L414.327 51.8366C415.591 50.0594 417.316 48.4606 419.465 47.0775C421.696 45.6424 424.603 44.9136 428.113 44.9136C431.928 44.9136 435.348 45.8283 438.271 47.6352C441.193 49.4422 443.521 51.9407 445.186 55.0713C446.859 58.2018 447.707 61.8009 447.707 65.7791C447.707 69.7574 446.859 73.3416 445.186 76.4499C443.513 79.5507 441.186 82.0269 438.271 83.8041C435.348 85.5813 431.905 86.4811 428.039 86.4811C424.96 86.4811 422.201 85.8639 419.837 84.6369C417.576 83.4695 415.732 81.8112 414.371 79.7143V103.026H405.745L405.731 103.034ZM426.596 52.4315C423.034 52.4315 420.075 53.6807 417.799 56.142C415.516 58.6034 414.364 61.8232 414.364 65.7048C414.364 69.5864 415.516 72.8657 417.799 75.3047C420.075 77.7363 423.042 78.9707 426.604 78.9707C430.165 78.9707 433.14 77.7363 435.445 75.2973C437.75 72.8583 438.918 69.631 438.918 65.6973C438.918 63.1245 438.39 60.8119 437.334 58.819C436.285 56.8262 434.828 55.2497 432.991 54.1194C431.154 52.9966 429.005 52.424 426.596 52.424V52.4315Z"></path>
              <path d="M405.827 102.937V45.9696H413.39L414.267 52.0969C415.539 50.2379 417.294 48.5945 419.517 47.1668C421.748 45.7316 424.611 45.0178 428.113 45.0178C431.935 45.0178 435.304 45.9175 438.219 47.7245C441.134 49.5314 443.431 51.9928 445.104 55.1233C446.777 58.2539 447.61 61.8083 447.61 65.7866C447.61 69.7649 446.777 73.3044 445.104 76.4053C443.431 79.5061 441.141 81.9525 438.219 83.7223C435.304 85.4995 431.905 86.3844 428.031 86.3844C424.953 86.3844 422.239 85.7747 419.874 84.5552C417.509 83.3356 415.643 81.6105 414.267 79.3797V102.93H405.835L405.827 102.937ZM426.596 79.0674C430.203 79.0674 433.169 77.833 435.504 75.3642C437.839 72.8955 439.007 69.6757 439.007 65.6974C439.007 63.1022 438.479 60.7896 437.415 58.7744C436.352 56.7593 434.895 55.1828 433.043 54.0377C431.184 52.9 429.035 52.3274 426.596 52.3274C422.99 52.3274 420.03 53.5766 417.725 56.0677C415.42 58.5588 414.267 61.7711 414.267 65.6974C414.267 69.6236 415.42 72.8955 417.725 75.3642C420.03 77.833 422.99 79.0674 426.596 79.0674Z"></path>
              <path d="M466.892 86.4884C463.553 86.4884 460.75 85.9233 458.571 84.8079C456.392 83.6925 454.741 82.1904 453.678 80.3537C452.615 78.517 452.072 76.4795 452.072 74.3008C452.072 70.4638 453.581 67.3927 456.563 65.1545C459.538 62.9237 463.843 61.7934 469.353 61.7934H479.6V61.1762C479.6 58.1423 478.767 55.8371 477.124 54.3276C475.48 52.8106 473.317 52.0447 470.706 52.0447C468.401 52.0447 466.371 52.6173 464.676 53.7401C462.98 54.863 461.939 56.5361 461.575 58.7297L461.56 58.8115H452.942V58.7074C453.217 55.8371 454.198 53.346 455.879 51.2937C457.552 49.2488 459.709 47.6575 462.281 46.5718C464.854 45.4861 467.717 44.9359 470.796 44.9359C476.313 44.9359 480.641 46.4008 483.675 49.3008C486.701 52.2009 488.241 56.194 488.241 61.1836V85.5441H480.738L480.046 79.0078C478.938 81.0676 477.347 82.8299 475.309 84.2502C473.183 85.7374 470.35 86.4959 466.899 86.4959L466.892 86.4884ZM470.231 67.7125C466.929 67.7125 464.549 68.2925 463.174 69.4376C461.798 70.5828 461.099 72.0254 461.099 73.7431C461.099 75.4608 461.768 76.9108 463.092 77.9221C464.423 78.9409 466.26 79.454 468.565 79.454C470.87 79.454 472.737 78.9111 474.276 77.8403C475.822 76.7695 477.042 75.3195 477.905 73.5423C478.76 71.7874 479.295 69.8317 479.518 67.7125H470.238H470.231Z"></path>
              <path d="M466.892 86.3918C463.553 86.3918 460.794 85.8341 458.615 84.7187C456.437 83.6033 454.823 82.1309 453.76 80.3017C452.696 78.4724 452.168 76.4721 452.168 74.2933C452.168 70.4712 453.656 67.4522 456.623 65.2214C459.589 62.9906 463.835 61.8826 469.353 61.8826H479.697V61.1687C479.697 58.0902 478.864 55.785 477.191 54.2458C475.518 52.7065 473.361 51.9406 470.706 51.9406C468.371 51.9406 466.341 52.5132 464.616 53.6509C462.891 54.7886 461.843 56.4766 461.471 58.7H453.038C453.306 55.8371 454.273 53.3832 455.946 51.3383C457.619 49.2934 459.738 47.7318 462.311 46.6462C464.884 45.5605 467.71 45.0177 470.788 45.0177C476.306 45.0177 480.574 46.4603 483.6 49.3529C486.627 52.2455 488.136 56.1866 488.136 61.1687V85.4325H480.819L480.106 78.6657C478.99 80.8445 477.376 82.6738 475.25 84.1535C473.13 85.6407 470.342 86.3843 466.899 86.3843L466.892 86.3918ZM468.565 79.5506C470.848 79.5506 472.766 79.0078 474.335 77.9221C475.897 76.8365 477.124 75.3864 477.994 73.5869C478.871 71.7874 479.414 69.7945 479.622 67.6232H470.23C466.892 67.6232 464.512 68.2107 463.107 69.3707C461.701 70.5381 461.002 71.9956 461.002 73.7431C461.002 75.4905 461.679 76.9629 463.032 77.9965C464.386 79.0301 466.23 79.5506 468.565 79.5506Z"></path>
              <path d="M495.394 85.3211V45.6647H503.135L503.827 52.9149C505.195 50.4387 507.099 48.4532 509.478 46.9883C511.947 45.4714 514.981 44.7055 518.483 44.7055H518.58V53.7328H516.178C513.873 53.7328 511.783 54.1195 509.969 54.878C508.162 55.6364 506.712 56.9378 505.641 58.7373C504.57 60.5442 504.028 63.0799 504.028 66.2848V85.3211H495.402H495.394Z"></path>
              <path d="M495.491 85.2244V45.7614H503.053L503.767 53.242C505.143 50.6469 507.069 48.5871 509.538 47.0776C512.006 45.568 514.988 44.8096 518.491 44.8096V53.6436H516.185C513.851 53.6436 511.768 54.0303 509.939 54.7962C508.11 55.5695 506.652 56.8634 505.567 58.6926C504.481 60.5219 503.938 63.0576 503.938 66.2923V85.2319H495.506L495.491 85.2244Z"></path>
              <path d="M524.685 85.3211V45.6647H532.426L533.117 52.9149C534.486 50.4461 536.389 48.4532 538.769 46.9883C541.238 45.4714 544.271 44.7055 547.774 44.7055H547.87V53.7328H545.469C543.163 53.7328 541.074 54.1195 539.26 54.878C537.453 55.6364 536.003 56.9378 534.932 58.7373C533.861 60.5442 533.318 63.0799 533.318 66.2848V85.3211H524.692H524.685Z"></path>
              <path d="M524.782 85.2244V45.7614H532.337L533.051 53.242C534.426 50.6469 536.352 48.5871 538.821 47.0776C541.29 45.568 544.272 44.8096 547.774 44.8096V53.6436H545.469C543.134 53.6436 541.052 54.0303 539.222 54.7962C537.393 55.5695 535.936 56.8634 534.85 58.6926C533.764 60.5219 533.222 63.0576 533.222 66.2923V85.2319H524.789L524.782 85.2244Z"></path>
              <path d="M569.234 86.4885C565.471 86.4885 562.043 85.6111 559.039 83.8859C556.042 82.1607 553.633 79.7143 551.878 76.606C550.131 73.5052 549.239 69.8318 549.239 65.6974C549.239 61.5629 550.138 57.8895 551.916 54.7887C553.693 51.6879 556.132 49.234 559.151 47.5088C562.177 45.7836 565.59 44.9136 569.301 44.9136C573.012 44.9136 576.492 45.7911 579.496 47.5088C582.492 49.234 584.917 51.6804 586.694 54.7887C588.471 57.8895 589.371 61.5629 589.371 65.6974C589.371 69.8318 588.471 73.5052 586.694 76.606C584.917 79.7143 582.478 82.1607 579.459 83.8859C576.432 85.6111 572.989 86.4811 569.227 86.4811L569.234 86.4885ZM569.316 52.3571C567.33 52.3571 565.457 52.8628 563.754 53.8592C562.051 54.8556 560.66 56.3503 559.612 58.3134C558.563 60.2765 558.035 62.7676 558.035 65.7048C558.035 68.642 558.563 71.1331 559.612 73.0962C560.66 75.0593 562.043 76.5614 563.717 77.5578C565.39 78.5543 567.249 79.0525 569.234 79.0525C571.219 79.0525 573.093 78.5468 574.796 77.5578C576.492 76.5688 577.89 75.0668 578.938 73.0962C579.987 71.1331 580.514 68.642 580.514 65.7048C580.514 62.7676 579.994 60.2765 578.975 58.3134C577.956 56.3503 576.573 54.8556 574.878 53.8592C573.175 52.8628 571.301 52.3571 569.316 52.3571Z"></path>
              <path d="M569.234 86.3917C565.464 86.3917 562.088 85.5291 559.091 83.804C556.095 82.0788 553.723 79.6695 551.968 76.5613C550.22 73.4605 549.343 69.8391 549.343 65.6972C549.343 61.5554 550.228 57.9414 552.005 54.8332C553.782 51.7324 556.184 49.3156 559.203 47.5905C562.229 45.8653 565.59 45.0027 569.308 45.0027C573.026 45.0027 576.454 45.8653 579.451 47.5905C582.448 49.3156 584.835 51.7249 586.612 54.8332C588.389 57.934 589.274 61.5554 589.274 65.6972C589.274 69.8391 588.382 73.453 586.612 76.5613C584.835 79.6621 582.433 82.0788 579.414 83.804C576.388 85.5291 572.997 86.3917 569.227 86.3917H569.234ZM569.234 79.149C571.249 79.149 573.116 78.6434 574.841 77.6395C576.566 76.6356 577.957 75.1336 579.02 73.1407C580.083 71.1553 580.611 68.6716 580.611 65.7047C580.611 62.7377 580.091 60.2541 579.057 58.2686C578.024 56.2832 576.64 54.7811 574.923 53.7698C573.198 52.766 571.331 52.2603 569.316 52.2603C567.301 52.2603 565.427 52.766 563.709 53.7698C561.984 54.7811 560.593 56.2758 559.53 58.2686C558.467 60.2541 557.939 62.7377 557.939 65.7047C557.939 68.6716 558.467 71.1553 559.53 73.1407C560.593 75.1336 561.969 76.6282 563.665 77.6395C565.36 78.6508 567.219 79.149 569.234 79.149Z"></path>
              <path d="M629.05 85.3213L620.052 54.5435L611.054 85.3213H602.243L590.568 45.6649H599.201L606.771 75.1488L615.285 45.6649H624.818L633.34 75.1488L640.903 45.6649H649.543L637.869 85.3213H629.05Z"></path>
              <path d="M602.31 85.2243L590.695 45.7612H599.127L606.764 75.5202L615.36 45.7612H624.752L633.348 75.5202L640.984 45.7612H649.417L637.802 85.2243H629.131L620.059 54.1937L610.987 85.2243H602.317H602.31Z"></path>
            </g>
          </svg>